<?xml version="1.0" encoding="utf-8"?>
<!-- Generator: Adobe Illustrator 20.0.0, SVG Export Plug-In . SVG Version: 6.00 Build 0)  -->
<svg version="1.1" id="Layer_1" xmlns="http://www.w3.org/2000/svg" xmlns:xlink="http://www.w3.org/1999/xlink" x="0px" y="0px"
	 viewBox="0 0 140 32" style="enable-background:new 0 0 140 32;" xml:space="preserve">
<style type="text/css">
	.st0{fill:#FFFFFF;}
	.st1{enable-background:new    ;}
</style>
<g>
	<g>
		<g>
			<g>
				<path class="st0" d="M41,8.7l0.1-0.1c0.1-0.1,0.1-0.1,0.2,0c0.1,0.1,0.8,0.7,1.7,0.7c0.8,0,1.6-0.6,1.6-1.3
					c0-0.8-0.7-1.2-1.8-1.6S41,5.6,41,4.5c0-0.7,0.6-1.7,2-1.7c0.9,0,1.6,0.5,1.6,0.5s0.1,0.1,0,0.2l-0.1,0.1
					c-0.1,0.1-0.1,0.1-0.2,0c0,0-0.7-0.4-1.4-0.4c-1.1,0-1.6,0.7-1.6,1.3c0,0.8,0.6,1.2,1.5,1.5c1.3,0.4,2.1,0.9,2.1,2
					c0,0.9-1,1.7-2,1.7c-1.1,0-1.9-0.7-2-0.8C41,8.8,40.9,8.8,41,8.7"/>
				<path class="st0" d="M47.4,3.3h-1.8c-0.1,0-0.1-0.1-0.1-0.1V3.1C45.5,3,45.6,3,45.6,3h4c0.1-0.1,0.2,0,0.2,0.1v0.2
					c0,0.1,0,0.1-0.1,0.1h-1.9v6.1c0,0.1-0.1,0.1-0.1,0.1h-0.2c-0.1,0-0.1-0.1-0.1-0.1S47.4,3.3,47.4,3.3z"/>
				<path class="st0" d="M50.7,3.1C50.7,3,50.8,3,50.7,3.1L51,3c0.1,0,0.1,0.1,0.1,0.1v4c0,1.2,0.8,2.1,2,2.1s2-0.9,2-2.1v-4
					c0-0.1,0-0.1,0.1-0.1h0.2c0.1,0,0.1,0.1,0.1,0.1v4.1c0,1.4-1,2.5-2.4,2.5c-1.5,0-2.4-1.1-2.4-2.5C50.7,7.2,50.7,3.1,50.7,3.1z"
					/>
				<path class="st0" d="M57.5,3.1C57.5,3,57.6,3,57.5,3.1L59.6,3c1.8,0,3.3,1.5,3.3,3.3s-1.5,3.3-3.3,3.3h-2
					c-0.1,0-0.1-0.1-0.1-0.1V3.1z M59.5,9.1c1.6,0,2.9-1.3,2.9-2.9s-1.3-2.9-2.9-2.9h-1.6v5.8H59.5z"/>
				<path class="st0" d="M64.4,3.1C64.4,3,64.5,3,64.4,3.1L64.7,3c0.1-0.1,0.1,0,0.1,0.1v6.4c0,0.1-0.1,0.1-0.1,0.1h-0.2
					c-0.1,0-0.1-0.1-0.1-0.1S64.4,3.1,64.4,3.1z"/>
				<path class="st0" d="M81.3,3.3h-1.8c-0.1,0-0.1-0.1-0.1-0.1V3.1C79.4,3,79.5,3,79.5,3h4c0.1,0,0.1,0.1,0.1,0.1v0.2
					c0,0.1,0,0.1-0.1,0.1h-1.8v6.1c0,0.1-0.1,0.1-0.1,0.1h-0.2c-0.1,0-0.1-0.1-0.1-0.1V3.3z"/>
				<path class="st0" d="M86.5,3.3h-1.8c-0.1,0-0.1-0.1-0.1-0.1V3.1C84.6,3,84.7,3,84.7,3h4c0.1-0.1,0.1,0,0.1,0.1v0.2
					c0,0.1,0,0.1-0.1,0.1h-1.8v6.1c0,0.1-0.1,0.1-0.1,0.1h-0.2c-0.1,0-0.1-0.1-0.1-0.1S86.5,3.3,86.5,3.3z"/>
				<path class="st0" d="M92.7,2.8c1.9,0,3.4,1.5,3.4,3.4s-1.5,3.4-3.4,3.4c-1.9,0-3.4-1.5-3.4-3.4C89.3,4.4,90.8,2.8,92.7,2.8
					 M92.7,9.2c1.6,0,3-1.3,3-3s-1.3-3-3-3s-2.9,1.3-2.9,3C89.7,7.9,91,9.2,92.7,9.2"/>
				<path class="st0" d="M75,2.9L75,2.9h-4.6l0,0c-1.8,0-3.3,1.5-3.3,3.3s1.4,3.3,3.3,3.3l0,0l0,0H75l0,0l0,0c1.8,0,3.3-1.5,3.3-3.3
					S76.9,2.9,75,2.9 M75,9.1L75,9.1L75,9.1h-4.6l0,0l0,0c-1.6,0-2.9-1.3-2.9-2.9s1.3-2.9,2.9-2.9l0,0H75l0,0c1.6,0,2.9,1.3,2.9,2.9
					S76.6,9.1,75,9.1"/>
			</g>
		</g>
	</g>
	<g>
		<g class="st1">
			<path class="st0" d="M96.9,3.8c0-0.2,0-0.3,0.1-0.4C97,3.2,97.1,3.1,97.2,3c0.1-0.1,0.2-0.2,0.4-0.2c0.1-0.1,0.3-0.1,0.4-0.1
				c0.2,0,0.3,0,0.4,0.1c0.1,0.1,0.3,0.1,0.4,0.2C98.9,3.1,99,3.2,99,3.3s0.1,0.3,0.1,0.4c0,0.2,0,0.3-0.1,0.4s-0.1,0.3-0.2,0.4
				c-0.1,0.1-0.2,0.2-0.4,0.2c-0.1,0.1-0.3,0.1-0.4,0.1c-0.2,0-0.3,0-0.4-0.1c-0.1-0.1-0.3-0.1-0.4-0.2C97.1,4.4,97,4.3,97,4.2
				C96.9,4.1,96.9,3.9,96.9,3.8z M97,3.8c0,0.1,0,0.3,0.1,0.4c0,0.1,0.1,0.2,0.2,0.3c0.1,0.1,0.2,0.2,0.3,0.2s0.2,0.1,0.4,0.1
				c0.1,0,0.3,0,0.4-0.1c0.1-0.1,0.2-0.1,0.3-0.2c0.1-0.1,0.2-0.2,0.2-0.3s0.1-0.2,0.1-0.4s0-0.3-0.1-0.4s-0.1-0.2-0.2-0.3
				c-0.1-0.1-0.2-0.2-0.3-0.2c-0.1-0.1-0.2-0.1-0.4-0.1s-0.3,0-0.4,0.1S97.4,3,97.3,3.1c-0.1,0.1-0.2,0.2-0.2,0.3
				C97,3.5,97,3.6,97,3.8z M97.6,4.3V3.2H98c0.1,0,0.2,0,0.3,0.1c0.1,0.1,0.1,0.1,0.1,0.2c0,0.1,0,0.2-0.1,0.2
				c0,0.1-0.1,0.1-0.2,0.1l0.3,0.5h-0.2L98,3.9h-0.2v0.5H97.6z M97.8,3.8H98c0.1,0,0.1,0,0.2-0.1s0.1-0.1,0.1-0.2
				c0-0.1-0.1-0.2-0.3-0.2h-0.2V3.8z"/>
		</g>
	</g>
</g>
</svg>
