<?xml version="1.0" encoding="utf-8"?>
<!-- Generator: Adobe Illustrator 20.0.0, SVG Export Plug-In . SVG Version: 6.00 Build 0)  -->
<svg version="1.1" id="Layer_1" xmlns="http://www.w3.org/2000/svg" xmlns:xlink="http://www.w3.org/1999/xlink" x="0px" y="0px"
	 viewBox="0 0 140 32" style="enable-background:new 0 0 140 32;" xml:space="preserve">
<style type="text/css">
	.st0{fill:#FFFFFF;}
	.st1{enable-background:new    ;}
</style>
<g>
	<g>
		<g>
			<g>
				<path class="st0" d="M35.8,8.7l0.1-0.1c0.1-0.1,0.1-0.1,0.2,0c0.1,0.1,0.8,0.7,1.7,0.7c0.8,0,1.6-0.6,1.6-1.3
					c0-0.8-0.7-1.2-1.8-1.6s-1.8-0.8-1.8-1.9c0-0.7,0.6-1.7,2-1.7c0.9,0,1.6,0.5,1.6,0.5s0.1,0.1,0,0.2l-0.1,0.1
					c-0.1,0.1-0.1,0.1-0.2,0c0,0-0.7-0.4-1.4-0.4c-1.1,0-1.6,0.7-1.6,1.3c0,0.8,0.6,1.2,1.5,1.5c1.3,0.4,2.1,0.9,2.1,2
					c0,0.9-1,1.7-2,1.7c-1.1,0-1.9-0.7-2-0.8C35.8,8.8,35.7,8.8,35.8,8.7"/>
				<path class="st0" d="M42.2,3.3h-1.8c-0.1,0-0.1-0.1-0.1-0.1V3.1C40.3,3,40.4,3,40.4,3h4c0.1-0.1,0.2,0,0.2,0.1v0.2
					c0,0.1,0,0.1-0.1,0.1h-1.9v6.1c0,0.1-0.1,0.1-0.1,0.1h-0.2c-0.1,0-0.1-0.1-0.1-0.1S42.2,3.3,42.2,3.3z"/>
				<path class="st0" d="M45.5,3.1C45.5,3,45.6,3,45.5,3.1L45.8,3c0.1,0,0.1,0.1,0.1,0.1v4c0,1.2,0.8,2.1,2,2.1s2-0.9,2-2.1v-4
					C49.9,3,49.9,3,50,3h0.2c0.1,0,0.1,0.1,0.1,0.1v4.1c0,1.4-1,2.5-2.4,2.5c-1.5,0-2.4-1.1-2.4-2.5C45.5,7.2,45.5,3.1,45.5,3.1z"/>
				<path class="st0" d="M52.3,3.1C52.3,3,52.4,3,52.3,3.1L54.4,3c1.8,0,3.3,1.5,3.3,3.3s-1.5,3.3-3.3,3.3h-2
					c-0.1,0-0.1-0.1-0.1-0.1V3.1z M54.3,9.1c1.6,0,2.9-1.3,2.9-2.9s-1.3-2.9-2.9-2.9h-1.6v5.8H54.3z"/>
				<path class="st0" d="M59.2,3.1C59.2,3,59.3,3,59.2,3.1L59.5,3c0.1-0.1,0.1,0,0.1,0.1v6.4c0,0.1-0.1,0.1-0.1,0.1h-0.2
					c-0.1,0-0.1-0.1-0.1-0.1S59.2,3.1,59.2,3.1z"/>
				<path class="st0" d="M76.1,3.3h-1.8c-0.1,0-0.1-0.1-0.1-0.1V3.1C74.2,3,74.3,3,74.3,3h4c0.1,0,0.1,0.1,0.1,0.1v0.2
					c0,0.1,0,0.1-0.1,0.1h-1.8v6.1c0,0.1-0.1,0.1-0.1,0.1h-0.2c-0.1,0-0.1-0.1-0.1-0.1V3.3z"/>
				<path class="st0" d="M81.3,3.3h-1.8c-0.1,0-0.1-0.1-0.1-0.1V3.1C79.4,3,79.5,3,79.5,3h4c0.1-0.1,0.1,0,0.1,0.1v0.2
					c0,0.1,0,0.1-0.1,0.1h-1.8v6.1c0,0.1-0.1,0.1-0.1,0.1h-0.2c-0.1,0-0.1-0.1-0.1-0.1S81.3,3.3,81.3,3.3z"/>
				<path class="st0" d="M87.5,2.8c1.9,0,3.4,1.5,3.4,3.4s-1.5,3.4-3.4,3.4s-3.4-1.5-3.4-3.4C84.1,4.4,85.6,2.8,87.5,2.8 M87.5,9.2
					c1.6,0,3-1.3,3-3s-1.3-3-3-3s-2.9,1.3-2.9,3C84.5,7.9,85.8,9.2,87.5,9.2"/>
				<path class="st0" d="M69.8,2.9L69.8,2.9h-4.6l0,0c-1.8,0-3.3,1.5-3.3,3.3s1.4,3.3,3.3,3.3l0,0l0,0h4.6l0,0l0,0
					c1.8,0,3.3-1.5,3.3-3.3S71.7,2.9,69.8,2.9 M69.8,9.1L69.8,9.1L69.8,9.1h-4.6l0,0l0,0c-1.6,0-2.9-1.3-2.9-2.9s1.3-2.9,2.9-2.9
					l0,0h4.6l0,0c1.6,0,2.9,1.3,2.9,2.9S71.4,9.1,69.8,9.1"/>
			</g>
		</g>
	</g>
	<g>
		<g class="st1">
			<path class="st0" d="M91.7,3.8c0-0.2,0-0.3,0.1-0.4C91.8,3.2,91.9,3.1,92,3c0.1-0.1,0.2-0.2,0.4-0.2c0.1-0.1,0.3-0.1,0.4-0.1
				c0.2,0,0.3,0,0.4,0.1c0.1,0.1,0.3,0.1,0.4,0.2c0.1,0.1,0.2,0.2,0.2,0.4s0.1,0.3,0.1,0.4c0,0.2,0,0.3-0.1,0.4s-0.1,0.3-0.2,0.4
				c-0.1,0.1-0.2,0.2-0.4,0.2c-0.1,0.1-0.3,0.1-0.4,0.1c-0.2,0-0.3,0-0.4-0.1c-0.1-0.1-0.3-0.1-0.4-0.2c-0.1-0.1-0.2-0.2-0.2-0.4
				C91.7,4.1,91.7,3.9,91.7,3.8z M91.8,3.8c0,0.1,0,0.3,0.1,0.4c0,0.1,0.1,0.2,0.2,0.3c0.1,0.1,0.2,0.2,0.3,0.2s0.2,0.1,0.4,0.1
				c0.1,0,0.3,0,0.4-0.1c0.1-0.1,0.2-0.1,0.3-0.2c0.1-0.1,0.2-0.2,0.2-0.3s0.1-0.2,0.1-0.4s0-0.3-0.1-0.4s-0.1-0.2-0.2-0.3
				c-0.1-0.1-0.2-0.2-0.3-0.2c-0.1-0.1-0.2-0.1-0.4-0.1s-0.3,0-0.4,0.1S92.2,3,92.1,3.1c-0.1,0.1-0.2,0.2-0.2,0.3
				C91.8,3.5,91.8,3.6,91.8,3.8z M92.4,4.3V3.2h0.4c0.1,0,0.2,0,0.3,0.1c0.1,0.1,0.1,0.1,0.1,0.2c0,0.1,0,0.2-0.1,0.2
				c0,0.1-0.1,0.1-0.2,0.1l0.3,0.5h-0.2l-0.3-0.5h-0.2v0.5H92.4z M92.6,3.8h0.3c0.1,0,0.1,0,0.2-0.1s0.1-0.1,0.1-0.2
				c0-0.1-0.1-0.2-0.3-0.2h-0.2V3.8z"/>
		</g>
	</g>
</g>
</svg>
